:SAMPLES-PER-SECOND 30
:FULLY-SPECIFIED
:DEGREES
1
root  -102.349 38.854 -1.30309 -172.407 80.6222 -177.38
RightUpLeg  -29.7671 3.02599 -1.96592
RightLeg  -5.77523 1.20123 1.14129
RightFoot  1.986 -0.591068 4.45855
RightToes  2.21189e-009 -3.18055e-015 8.94531e-016
Spine  -17.8164 -9.74679 -10.2332
Spine1  20.7076 -11.9043 9.35392
HEad  -1.69804 3.00893 0.459925
LeftShoulder1  0 0 -2.47967e-037
LeftArm  16.2751 -0.455992 -78.1539
LeftForeArm  -37.2117 -38.2709 22.8063
LeftHand  0.795193 5.92403 1.0344
RightShoulder  -2.48481e-017 0 -8.08114e-019
RightArm  6.20746 -65.2498 76.2434
RightForeArm  -14.5829 13.1897 2.19508
RightHand  1.33974 -12.3322 -2.45069
LeftUpLeg  5.55429 -4.12598 2.15116
LeftLeg  12.279 -26.7439 -3.33573
LeftFoot  -15.3554 -0.0753875 -1.6184
LeftToes  -2.77942e-009 -2.0471e-010 1.20669e-012
2
root  -100.896 38.6225 -1.23554 -171.997 80.3582 -177.152
RightUpLeg  -30.6737 2.7473 -1.83286
RightLeg  -5.19185 -1.14504 1.55515
RightFoot  0.532414 -0.478506 3.96022
RightToes  2.21189e-009 -3.18055e-015 8.94531e-016
Spine  -18.5799 -10.1469 -10.401
Spine1  21.754 -12.4817 9.69999
HEad  -2.75339 4.99612 0.278433
LeftShoulder1  0 0 -2.47967e-037
LeftArm  15.3682 -1.23078 -77.7762
LeftForeArm  -36.5505 -38.0958 22.7608
LeftHand  0.78003 5.88131 1.56622
RightShoulder  -2.48481e-017 0 -8.08114e-019
RightArm  7.50958 -66.3738 74.4259
RightForeArm  -14.7906 13.3083 2.04426
RightHand  1.27212 -12.0332 -1.80062
LeftUpLeg  7.2435 -4.05691 2.3197
LeftLeg  12.8499 -24.0924 -2.67371
LeftFoot  -14.6818 -0.093881 -4.11193
LeftToes  -2.77942e-009 -2.0471e-010 1.20669e-012
3
root  -98.8094 38.3199 -1.12276 -169.623 80.0727 -175.033
RightUpLeg  -32.3156 3.03004 -1.00922
RightLeg  0.538755 -4.09627 0.305095
RightFoot  0.581699 -0.175104 1.48032
RightToes  2.21189e-009 -3.18055e-015 8.94531e-016
Spine  -18.842 -10.3932 -10.4776
Spine1  22.0734 -13.2203 10.8699
HEad  -3.22772 6.9833 -0.504403
LeftShoulder1  0 0 -2.47967e-037
LeftArm  13.4205 -0.324863 -77.889
LeftForeArm  -36.706 -38.4466 22.9262
LeftHand  0.784427 5.99437 2.69159
RightShoulder  -2.48481e-017 0 -8.08114e-019
RightArm  9.49979 -67.5743 71.7179
RightForeArm  -16.2473 13.7054 1.59938
RightHand  1.3139 -12.7427 -1.09793
LeftUpLeg  9.13426 -5.69935 2.74216
LeftLeg  14.6386 -18.6146 -2.11311
LeftFoot  -12.344 0.0438658 -8.03432
LeftToes  -2.77942e-009 -2.0471e-010 1.20669e-012
4
root  -96.6734 38.0959 -1.0274 -162.953 79.2077 -168.39
RightUpLeg  -33.1858 3.72517 0.69945
RightLeg  7.14746 -5.59963 -1.51357
RightFoot  4.5812 0.0520512 -0.369087
RightToes  2.21189e-009 -3.18055e-015 8.94531e-016
Spine  -19.1895 -10.6586 -8.7266
Spine1  21.9448 -13.9624 11.2981
HEad  -2.32222 7.22187 -1.26782
LeftShoulder1  0 0 -2.47967e-037
LeftArm  10.9286 2.71209 -78.5463
LeftForeArm  -37.8031 -38.958 23.1153
LeftHand  0.793746 6.08939 3.12549
RightShoulder  -2.48481e-017 0 -8.08114e-019
RightArm  9.00098 -68.0185 70.1137
RightForeArm  -15.9483 13.5139 1.67624
RightHand  1.37668 -13.2139 -1.3057
LeftUpLeg  9.81393 -7.92042 4.15333
LeftLeg  18.5455 -11.0417 -0.690987
LeftFoot  -7.34077 0.578959 -11.3075
LeftToes  -2.77942e-009 -2.0471e-010 1.20669e-012
5
root  -94.5842 37.7325 -0.958615 -150.755 78.2471 -155.698
RightUpLeg  -33.7854 4.05558 4.24259
RightLeg  14.0722 -4.00851 -3.2729
RightFoot  7.68779 0.222494 -1.22068
RightToes  2.21189e-009 -3.18055e-015 8.94531e-016
Spine  -19.0771 -10.1868 -3.67203
Spine1  21.869 -13.6154 9.5964
HEad  -1.54473 6.59032 -1.58969
LeftShoulder1  0 0 -2.47967e-037
LeftArm  8.55696 6.46493 -79.7885
LeftForeArm  -39.0427 -39.1727 23.1491
LeftHand  0.799865 6.15244 3.6437
RightShoulder  -2.48481e-017 0 -8.08114e-019
RightArm  5.76916 -67.0019 71.3183
RightForeArm  -14.1882 13.0408 1.99092
RightHand  1.25665 -12.2609 -0.993049
LeftUpLeg  8.49102 -8.02541 7.3594
LeftLeg  26.1543 -6.99633 1.23621
LeftFoot  0.369622 1.68577 -13.5117
LeftToes  -2.77942e-009 -2.0471e-010 1.20669e-012
6
root  -92.6995 37.3243 -0.850101 -141.152 77.9943 -145.176
RightUpLeg  -34.1233 3.50581 7.94675
RightLeg  21.5477 -1.15684 -4.55893
RightFoot  5.83921 0.596686 -3.62983
RightToes  2.21189e-009 -3.18055e-015 8.94531e-016
Spine  -17.8667 -9.33058 0.46503
Spine1  22.0607 -12.5659 7.92007
HEad  -1.95062 7.46639 -1.18103
LeftShoulder1  0 0 -2.47967e-037
LeftArm  5.89373 10.3966 -81.3608
LeftForeArm  -38.5737 -39.2928 23.2395
LeftHand  0.854723 6.40714 1.82988
RightShoulder  -2.48481e-017 0 -8.08114e-019
RightArm  2.28759 -63.9142 75.2771
RightForeArm  -14.8242 12.9541 2.12096
RightHand  1.28415 -12.5428 -0.912266
LeftUpLeg  5.30089 -6.22795 10.7332
LeftLeg  36.2466 -7.5235 2.30745
LeftFoot  11.6422 2.70715 -12.3281
LeftToes  -2.77942e-009 -2.0471e-010 1.20669e-012
7
root  -90.9775 37.1558 -0.731734 -136.548 77.7524 -139.669
RightUpLeg  -32.9773 2.64897 10.2724
RightLeg  26.4578 0.69854 -4.82033
RightFoot  2.29071 0.779414 -5.78249
RightToes  2.21189e-009 -3.18055e-015 8.94531e-016
Spine  -16.3707 -8.53734 2.0632
Spine1  22.0906 -11.7364 7.9887
HEad  -1.82247 7.70956 -0.317735
LeftShoulder1  0 0 -2.47967e-037
LeftArm  4.13126 13.9402 -83.3961
LeftForeArm  -37.9617 -39.0304 23.1432
LeftHand  0.891771 6.54659 0.508556
RightShoulder  -2.48481e-017 0 -8.08114e-019
RightArm  -0.195054 -59.8942 79.1877
RightForeArm  -16.8117 13.7537 1.21171
RightHand  1.33205 -12.8147 -1.25681
LeftUpLeg  0.655023 -4.87075 12.7171
LeftLeg  46.3168 -7.49283 4.35194
LeftFoot  20.7575 2.48866 -7.88874
LeftToes  -2.77942e-009 -2.0471e-010 1.20669e-012
8
root  -89.2323 37.2454 -0.640701 -134.779 77.7539 -137.319
RightUpLeg  -30.6278 2.434 11.4911
RightLeg  29.0391 1.12823 -5.18886
RightFoot  -1.64525 0.605976 -5.9365
RightToes  2.21189e-009 -3.18055e-015 8.94531e-016
Spine  -16.3719 -7.57976 2.64395
Spine1  22.5401 -10.801 8.27657
HEad  -0.732261 6.36157 0.565396
LeftShoulder1  0 0 -2.47967e-037
LeftArm  4.0114 16.7563 -85.702
LeftForeArm  -38.4482 -37.6285 22.4174
LeftHand  0.906437 6.678 0.943351
RightShoulder  -2.48481e-017 0 -8.08114e-019
RightArm  2.25449 -55.9079 82.5284
RightForeArm  -21.8097 16.1781 -2.2195
RightHand  1.28545 -12.0624 -2.09131
LeftUpLeg  -4.83237 -5.22562 12.8149
LeftLeg  54.5091 -6.82257 7.49975
LeftFoot  20.6281 1.65865 -5.15759
LeftToes  -2.77942e-009 -2.0471e-010 1.20669e-012
9
root  -87.4356 37.5644 -0.572602 -135.932 78.2743 -137.741
RightUpLeg  -26.6884 2.72408 11.6353
RightLeg  29.2298 0.678168 -5.5006
RightFoot  -4.71801 0.415245 -5.67385
RightToes  2.21189e-009 -3.18055e-015 8.94531e-016
Spine  -16.9127 -6.6751 2.92921
Spine1  22.9975 -9.53385 7.27476
HEad  0.641006 5.02036 1.2301
LeftShoulder1  0 0 -2.47967e-037
LeftArm  5.31201 19.8923 -87.3182
LeftForeArm  -38.2554 -35.5399 21.4417
LeftHand  0.900005 6.59443 0.270139
RightShoulder  -2.48481e-017 0 -8.08114e-019
RightArm  12.554 -52.2301 85.9847
RightForeArm  -35.2901 19.164 -9.80873
RightHand  1.38259 -12.2506 -3.42242
LeftUpLeg  -10.0123 -6.28261 11.5451
LeftLeg  59.3753 -7.21371 8.75352
LeftFoot  17.0357 1.01237 -3.51738
LeftToes  -2.77942e-009 -2.0471e-010 1.20669e-012
10
root  -85.6693 37.9234 -0.545309 -137.889 79.1193 -138.938
RightUpLeg  -22.2269 3.92621 11.344
RightLeg  28.3251 -0.416027 -5.91696
RightFoot  -7.14557 0.288687 -5.41554
RightToes  2.21189e-009 -3.18055e-015 8.94531e-016
Spine  -17.2428 -5.54021 3.38291
Spine1  23.0729 -7.86179 5.87898
HEad  2.01657 3.65482 1.55718
LeftShoulder1  0 0 -2.47967e-037
LeftArm  8.2197 23.0791 -88.4923
LeftForeArm  -38.0589 -32.6799 20.1861
LeftHand  0.855442 6.22987 -0.23118
RightShoulder  -2.48481e-017 0 -8.08114e-019
RightArm  21.6392 -49.056 88.2164
RightForeArm  -46.9828 21.172 -18.3825
RightHand  1.45299 -12.413 -4.43297
LeftUpLeg  -14.8579 -7.42639 9.71782
LeftLeg  61.2064 -8.19469 7.63704
LeftFoot  14.9032 0.670552 -2.4954
LeftToes  -2.77942e-009 -2.0471e-010 1.20669e-012
11
root  -83.9114 38.2717 -0.528798 -139.74 80.377 -140.287
RightUpLeg  -17.6964 6.01383 10.8595
RightLeg  26.6461 -2.03304 -6.35069
RightFoot  -9.06818 0.179292 -5.00966
RightToes  2.21189e-009 -3.18055e-015 8.94531e-016
Spine  -17.6731 -4.12948 4.13748
Spine1  22.8967 -5.7362 3.91917
HEad  3.51305 1.52181 2.15246
LeftShoulder1  0 0 -2.47967e-037
LeftArm  11.8733 26.6681 -88.9313
LeftForeArm  -39.2361 -30.0363 19.0387
LeftHand  0.751151 5.76852 2.05827
RightShoulder  -2.48481e-017 0 -8.08114e-019
RightArm  20.6138 -46.1734 88.7626
RightForeArm  -46.4612 23.8725 -22.8221
RightHand  1.40393 -11.9169 -4.77955
LeftUpLeg  -19.3424 -7.98385 7.78078
LeftLeg  60.0953 -8.89865 5.78797
LeftFoot  12.1548 0.584977 -2.39036
LeftToes  -2.77942e-009 -2.0471e-010 1.20669e-012
12
root  -82.1481 38.6277 -0.496736 -137.684 83.0335 -137.888
RightUpLeg  -13.0561 9.31968 10.0167
RightLeg  24.3713 -3.5361 -6.4064
RightFoot  -10.3402 0.125432 -5.01147
RightToes  2.21189e-009 -3.18055e-015 8.94531e-016
Spine  -18.4364 -2.22644 4.28707
Spine1  23.1428 -3.15848 2.16379
HEad  4.54209 -0.0747471 2.47872
LeftShoulder1  0 0 -2.47967e-037
LeftArm  16.19 30.428 -88.5193
LeftForeArm  -41.2419 -28.0058 18.2168
LeftHand  0.727889 5.56949 1.58017
RightShoulder  -2.48481e-017 0 -8.08114e-019
RightArm  16.232 -43.0108 88.3418
RightForeArm  -42.243 27.297 -24.9404
RightHand  1.32185 -11.497 -4.30107
LeftUpLeg  -22.7367 -6.70975 5.55604
LeftLeg  55.653 -8.9633 4.38152
LeftFoot  8.90539 0.707168 -3.50283
LeftToes  -2.77942e-009 -2.0471e-010 1.20669e-012
13
root  -80.4379 38.8653 -0.526901 -135.344 85.2171 -135.433
RightUpLeg  -8.91758 10.8309 9.40278
RightLeg  22.2677 -3.79895 -5.98821
RightFoot  -11.5173 0.0729305 -4.89231
RightToes  2.21189e-009 -3.18055e-015 8.94531e-016
Spine  -19.266 -0.600282 5.13991
Spine1  23.7222 -0.89601 -0.0730625
HEad  4.61933 -0.790192 2.66436
LeftShoulder1  0 0 -2.47967e-037
LeftArm  20.0835 33.5846 -87.3481
LeftForeArm  -42.7447 -25.9497 16.7851
LeftHand  0.766683 5.49034 -0.921073
RightShoulder  -2.48481e-017 0 -8.08114e-019
RightArm  14.1256 -39.3902 87.8813
RightForeArm  -40.7402 30.4073 -27.2197
RightHand  1.33064 -11.6301 -4.10656
LeftUpLeg  -25.7973 -5.67076 3.86146
LeftLeg  48.7985 -8.13278 3.94707
LeftFoot  6.54359 0.879179 -4.86343
LeftToes  -2.77942e-009 -2.0471e-010 1.20669e-012
14
root  -78.7996 38.9465 -0.606576 -120.741 86.2814 -120.822
RightUpLeg  -5.21457 10.0211 9.46442
RightLeg  20.3606 -2.51141 -5.23809
RightFoot  -12.7275 0.0210006 -5.01208
RightToes  2.21189e-009 -3.18055e-015 8.94531e-016
Spine  -19.3225 0.63506 7.33
Spine1  23.6664 0.944309 -2.86872
HEad  4.44345 -1.0643 3.03966
LeftShoulder1  0 0 -2.47967e-037
LeftArm  21.6732 36.8792 -85.5045
LeftForeArm  -44.3534 -24.6913 14.8058
LeftHand  0.806415 5.90149 0.209689
RightShoulder  -2.48481e-017 0 -8.08114e-019
RightArm  13.2805 -35.6447 87.4977
RightForeArm  -40.6389 33.21 -29.3679
RightHand  1.46369 -12.3123 -4.85126
LeftUpLeg  -28.382 -4.99418 3.30381
LeftLeg  40.015 -7.21974 3.31081
LeftFoot  5.08104 0.838678 -5.05975
LeftToes  -2.77942e-009 -2.0471e-010 1.20669e-012
15
root  -77.1862 38.9294 -0.700178 -85.1981 86.871 -84.9366
RightUpLeg  -1.38977 9.37564 9.56151
RightLeg  18.7053 -0.496926 -4.47614
RightFoot  -13.8188 -0.0262881 -5.15597
RightToes  2.21189e-009 -3.18055e-015 8.94531e-016
Spine  -18.828 1.99666 9.47647
Spine1  23.7591 2.72798 -5.05136
HEad  3.98632 -0.732095 3.1936
LeftShoulder1  0 0 -2.47967e-037
LeftArm  20.6349 40.4336 -83.4856
LeftForeArm  -44.0123 -24.1616 13.0808
LeftHand  0.854799 6.38978 1.77267
RightShoulder  -2.48481e-017 0 -8.08114e-019
RightArm  13.8437 -31.5267 86.9505
RightForeArm  -40.0884 34.983 -30.8527
RightHand  1.43961 -12.0847 -4.98996
LeftUpLeg  -29.0431 -3.74132 3.42106
LeftLeg  28.6835 -6.48002 1.94311
LeftFoot  4.86486 0.897854 -5.47969
LeftToes  -2.77942e-009 -2.0471e-010 1.20669e-012
